<?xml version="1.0" standalone="no"?>
<!DOCTYPE svg PUBLIC "-//W3C//DTD SVG 20010904//EN"
 "http://www.w3.org/TR/2001/REC-SVG-20010904/DTD/svg10.dtd">
<svg version="1.0" xmlns="http://www.w3.org/2000/svg"
 width="260.000000pt" height="260.000000pt" viewBox="0 0 260.000000 260.000000"
 preserveAspectRatio="xMidYMid meet">
<metadata>
Created by potrace 1.14, written by Peter Selinger 2001-2017
</metadata>
<g transform="translate(0.000000,260.000000) scale(0.100000,-0.100000)"
fill="#000000" stroke="none">
<path d="M1220 2470 c-29 -5 5 -7 95 -7 102 0 127 2 90 7 -60 10 -123 10 -185
0z"/>
<path d="M1468 2453 c7 -3 16 -2 19 1 4 3 -2 6 -13 5 -11 0 -14 -3 -6 -6z"/>
<path d="M1073 2443 c9 -2 23 -2 30 0 6 3 -1 5 -18 5 -16 0 -22 -2 -12 -5z"/>
<path d="M1545 2443 c399 -86 754 -397 881 -773 16 -45 30 -78 31 -73 5 14
-50 159 -86 230 -78 155 -255 350 -405 448 -137 89 -308 161 -401 169 -22 2
-31 2 -20 -1z"/>
<path d="M1018 2433 c7 -3 16 -2 19 1 4 3 -2 6 -13 5 -11 0 -14 -3 -6 -6z"/>
<path d="M948 2413 c6 -2 18 -2 25 0 6 3 1 5 -13 5 -14 0 -19 -2 -12 -5z"/>
<path d="M1403 2389 c-90 -17 -153 -76 -173 -161 -18 -74 0 -137 57 -192 27
-27 43 -52 41 -62 -5 -28 -27 -28 -38 0 -8 22 -16 26 -49 26 -30 0 -44 -6 -59
-25 -13 -16 -30 -25 -47 -25 -17 0 -37 10 -51 25 -13 14 -32 25 -42 25 -11 0
-31 -11 -46 -25 -23 -22 -36 -25 -97 -25 l-69 0 0 -105 0 -105 68 0 c55 0 69
-3 79 -19 13 -20 70 -35 97 -25 10 4 22 17 27 30 5 14 17 24 27 24 21 0 59
-36 49 -47 -4 -3 -2 -12 4 -20 14 -16 91 -17 106 -2 7 7 19 9 27 6 12 -5 16
-22 16 -72 l0 -65 -31 0 c-16 0 -28 -3 -25 -8 2 -4 25 -7 50 -6 26 1 49 -2 52
-7 3 -5 9 -7 14 -4 5 3 11 1 14 -4 4 -6 18 -6 38 -1 18 6 47 6 71 0 23 -5 45
-7 49 -4 4 3 8 41 8 84 0 78 9 101 33 82 41 -32 103 -17 118 28 14 39 52 41
86 4 20 -21 30 -25 56 -20 17 3 41 15 52 26 16 15 35 20 76 20 30 0 60 4 67 8
9 6 12 34 10 103 l-3 94 -72 3 c-62 2 -77 7 -98 27 -26 27 -75 34 -75 11 0
-32 -80 -36 -111 -5 -28 28 -90 23 -104 -8 -5 -13 -15 -23 -22 -23 -23 0 -14
43 16 75 36 37 83 123 77 139 -2 6 -5 3 -5 -8 -1 -17 -3 -17 -26 -2 -13 9 -31
16 -38 16 -8 0 -21 8 -31 19 -11 12 -25 16 -41 13 -15 -2 -25 0 -25 7 0 6 9
11 19 11 11 0 22 4 25 9 7 11 46 2 46 -10 0 -5 7 -6 15 -3 8 4 15 2 15 -4 0
-6 -6 -13 -12 -15 -10 -4 -10 -6 0 -6 7 -1 15 6 18 14 4 8 18 16 33 16 15 1
19 3 9 6 -9 2 -22 19 -28 38 -28 83 -147 143 -247 124z m85 -167 c3 -20 -1
-22 -37 -22 -46 0 -52 11 -18 35 29 20 51 15 55 -13z"/>
<path d="M843 2380 c-35 -14 -27 -20 10 -8 17 6 34 13 36 14 8 7 -24 3 -46 -6z"/>
<path d="M745 2332 c-62 -34 -142 -89 -151 -103 -3 -6 17 6 46 27 28 20 79 52
113 70 34 19 58 34 52 34 -5 0 -32 -13 -60 -28z"/>
<path d="M952 2330 c-176 -62 -304 -141 -426 -264 -165 -166 -278 -389 -307
-608 -17 -121 -6 -355 19 -448 75 -273 227 -488 452 -639 196 -132 371 -185
615 -185 156 0 244 13 370 55 316 106 582 375 683 689 23 72 56 229 50 236 -5
4 -11 -7 -43 -81 -9 -22 -41 -77 -70 -121 -140 -215 -376 -367 -635 -410 -322
-53 -624 47 -848 280 -216 225 -310 526 -257 826 51 288 204 509 461 664 72
44 50 46 -64 6z"/>
<path d="M520 2168 c-25 -22 -36 -36 -25 -30 19 10 84 72 74 72 -2 -1 -24 -19
-49 -42z"/>
<path d="M1710 2123 c0 -5 5 -15 10 -23 7 -12 9 -10 7 8 -1 19 -17 33 -17 15z"/>
<path d="M398 2043 c-75 -80 -188 -263 -188 -305 0 -7 19 23 42 67 47 92 106
182 156 237 44 49 37 50 -10 1z"/>
<path d="M181 1654 c0 -11 3 -14 6 -6 3 7 2 16 -1 19 -3 4 -6 -2 -5 -13z"/>
<path d="M2462 1560 c0 -14 2 -19 5 -12 2 6 2 18 0 25 -3 6 -5 1 -5 -13z"/>
<path d="M152 1545 c0 -16 2 -22 5 -12 2 9 2 23 0 30 -3 6 -5 -1 -5 -18z"/>
<path d="M758 1513 c-103 -106 -105 -296 -6 -499 54 -111 108 -150 142 -103
14 21 16 21 100 -44 53 -41 91 -64 101 -61 19 8 19 24 0 24 -20 0 -19 29 2 37
13 5 12 8 -8 15 l-24 9 24 20 c13 10 34 19 47 19 24 0 32 -14 14 -25 -6 -3 -7
-17 -4 -30 4 -16 0 -27 -13 -35 -15 -10 -15 -11 -1 -6 29 9 31 -12 4 -39 -27
-27 -51 -32 -59 -12 -4 8 -6 9 -6 0 -1 -6 6 -19 15 -27 14 -15 18 -13 46 14
31 32 43 36 53 20 3 -5 -10 -25 -28 -44 -35 -34 -35 -35 -16 -55 23 -24 51
-28 43 -7 -3 8 -12 12 -20 9 -18 -7 -18 16 0 40 16 21 48 23 40 3 -4 -11 0
-13 15 -9 30 8 27 -21 -4 -52 -20 -21 -21 -25 -7 -25 10 0 22 13 29 30 10 28
43 43 43 20 0 -5 10 -10 23 -10 12 0 50 -18 85 -40 l62 -40 48 34 c26 18 65
41 87 51 123 53 250 122 320 174 79 58 80 59 98 40 19 -20 47 -19 75 4 24 19
80 125 107 203 36 103 43 192 20 270 -26 89 -85 164 -129 164 -22 0 -23 -5
-29 -76 -9 -117 -59 -196 -194 -307 -76 -62 -87 -81 -53 -90 11 -3 20 -10 20
-17 0 -18 -147 -83 -200 -88 l-48 -4 -1 231 c0 128 -3 236 -5 240 -3 4 -30 8
-61 9 -31 0 -63 6 -70 12 -8 6 -16 7 -19 2 -8 -13 -60 -12 -68 2 -4 6 -8 22
-8 35 0 13 -3 21 -7 17 -4 -3 -6 -87 -4 -185 2 -129 -1 -181 -9 -186 -9 -6 -9
-10 1 -16 12 -7 12 -10 0 -21 -9 -9 -15 -10 -18 -2 -4 13 -50 6 -60 -9 -4 -6
0 -8 10 -4 8 3 28 2 43 -2 26 -7 29 -11 32 -64 l3 -57 -35 0 c-39 0 -66 8 -66
20 0 5 19 22 42 39 34 25 38 31 21 31 -12 0 -25 5 -28 10 -8 12 -45 13 -45 1
0 -5 9 -11 21 -14 26 -7 20 -31 -9 -35 -12 -2 -22 -10 -22 -18 0 -10 -12 -14
-40 -14 -30 0 -40 4 -40 16 0 14 7 15 38 11 22 -4 32 -3 23 2 -8 5 -11 16 -8
25 4 10 1 16 -9 16 -8 0 -17 -7 -20 -15 -7 -17 -37 -20 -65 -5 -26 15 -24 29
7 40 25 10 23 12 -94 128 -128 124 -152 162 -152 237 0 23 -3 57 -6 74 -9 43
-40 41 -86 -6z m407 -553 c0 -10 -12 -16 -32 -18 -24 -2 -33 1 -33 12 0 8 6
17 13 20 22 9 52 1 52 -14z"/>
<path d="M2472 1500 c0 -19 2 -27 5 -17 2 9 2 25 0 35 -3 9 -5 1 -5 -18z"/>
<path d="M1273 1485 c0 -22 2 -30 4 -17 2 12 2 30 0 40 -3 9 -5 -1 -4 -23z"/>
<path d="M1232 1485 c0 -16 2 -22 5 -12 2 9 2 23 0 30 -3 6 -5 -1 -5 -18z"/>
<path d="M124 1414 c-9 -79 1 -286 20 -370 54 -245 165 -443 345 -617 232
-224 500 -332 816 -331 300 1 553 93 780 284 101 85 216 225 269 327 26 52 9
38 -31 -24 -149 -236 -347 -402 -598 -503 -157 -63 -430 -87 -618 -54 -238 41
-432 142 -619 322 -245 237 -352 498 -353 860 0 89 -1 162 -2 162 -1 0 -5 -25
-9 -56z"/>
<path d="M2482 1425 c0 -16 2 -22 5 -12 2 9 2 23 0 30 -3 6 -5 -1 -5 -18z"/>
<path d="M1602 1420 c0 -14 2 -19 5 -12 2 6 2 18 0 25 -3 6 -5 1 -5 -13z"/>
<path d="M1700 1430 c0 -5 5 -10 11 -10 5 0 7 5 4 10 -3 6 -8 10 -11 10 -2 0
-4 -4 -4 -10z"/>
<path d="M1665 1359 c-4 -6 -5 -12 -2 -15 2 -3 7 2 10 11 7 17 1 20 -8 4z"/>
<path d="M2494 1270 c0 -58 1 -81 3 -52 2 28 2 76 0 105 -2 28 -3 5 -3 -53z"/>
<path d="M1600 1210 c-13 -8 -12 -10 3 -10 9 0 17 5 17 10 0 12 -1 12 -20 0z"/>
<path d="M2471 1081 c-7 -46 -10 -85 -8 -87 6 -7 30 142 25 156 -2 7 -10 -24
-17 -69z"/>
<path d="M2433 920 c-5 -22 -7 -37 -2 -35 9 6 23 64 17 70 -2 3 -9 -13 -15
-35z"/>
<path d="M2411 862 c-1 -7 -10 -34 -22 -59 -11 -25 -18 -47 -16 -49 7 -8 49
97 43 109 -3 8 -5 8 -5 -1z"/>
<path d="M1270 655 c0 -19 -5 -25 -22 -26 -20 -1 -21 -2 -4 -6 12 -3 25 2 33
13 15 21 17 44 3 44 -5 0 -10 -11 -10 -25z"/>
</g>
</svg>
